<svg width="100" height="79" viewBox="0 0 100 79" fill="none" xmlns="http://www.w3.org/2000/svg">
<path d="M96.4286 78.5714H3.57143C2.62423 78.5714 1.71582 78.1952 1.04605 77.5254C0.376274 76.8556 0 75.9472 0 75V14.2857C0 13.3385 0.376274 12.4301 1.04605 11.7603C1.71582 11.0906 2.62423 10.7143 3.57143 10.7143H26.6429L32.75 1.60714C33.0735 1.11585 33.5134 0.712086 34.0305 0.431713C34.5477 0.15134 35.126 0.00304328 35.7143 0H64.2857C64.874 0.00304328 65.4523 0.15134 65.9695 0.431713C66.4866 0.712086 66.9265 1.11585 67.25 1.60714L73.3571 10.7143H96.4286C97.3758 10.7143 98.2842 11.0906 98.954 11.7603C99.6237 12.4301 100 13.3385 100 14.2857V75C100 75.9472 99.6237 76.8556 98.954 77.5254C98.2842 78.1952 97.3758 78.5714 96.4286 78.5714ZM7.14286 71.4286H92.8571V17.8571H71.4286C70.8403 17.8541 70.262 17.7058 69.7448 17.4254C69.2277 17.1451 68.7878 16.7413 68.4643 16.25L62.3571 7.14286H37.6429L31.5357 16.25C31.2122 16.7413 30.7723 17.1451 30.2552 17.4254C29.738 17.7058 29.1597 17.8541 28.5714 17.8571H7.14286V71.4286Z" fill="#757575"/>
</svg>
